<mxfile host="app.diagrams.net" modified="2021-03-03T12:49:18.690Z" agent="5.0 (X11)" etag="n5YKEwgFLP8Q0-xYQ7Ik" version="14.4.3" type="github">
  <diagram id="xob0y9eP82eo10FlUpxy" name="Page-1">
    <mxGraphModel dx="1141" dy="647" grid="0" gridSize="10" guides="1" tooltips="1" connect="1" arrows="1" fold="1" page="1" pageScale="1" pageWidth="850" pageHeight="1100" background="#ffffff" math="0" shadow="0">
      <root>
        <mxCell id="0" />
        <mxCell id="1" parent="0" />
        <mxCell id="husGnVyWFRahmSMxi9gw-1" value="Quản lý điểm học sinh tiểu học" style="rounded=0;whiteSpace=wrap;html=1;" vertex="1" parent="1">
          <mxGeometry x="349" y="190" width="120" height="60" as="geometry" />
        </mxCell>
        <mxCell id="husGnVyWFRahmSMxi9gw-2" value="Quản lý công tác đào tạo" style="rounded=0;whiteSpace=wrap;html=1;" vertex="1" parent="1">
          <mxGeometry x="112" y="308" width="120" height="60" as="geometry" />
        </mxCell>
        <mxCell id="husGnVyWFRahmSMxi9gw-3" value="Đánh giá năng lực" style="rounded=0;whiteSpace=wrap;html=1;" vertex="1" parent="1">
          <mxGeometry x="349" y="308" width="120" height="60" as="geometry" />
        </mxCell>
        <mxCell id="husGnVyWFRahmSMxi9gw-4" value="Quản lý điểm" style="rounded=0;whiteSpace=wrap;html=1;" vertex="1" parent="1">
          <mxGeometry x="595" y="308" width="120" height="60" as="geometry" />
        </mxCell>
        <mxCell id="husGnVyWFRahmSMxi9gw-5" value="" style="endArrow=none;html=1;entryX=0.5;entryY=1;entryDx=0;entryDy=0;exitX=0.5;exitY=0;exitDx=0;exitDy=0;strokeWidth=3;" edge="1" parent="1" source="husGnVyWFRahmSMxi9gw-3" target="husGnVyWFRahmSMxi9gw-1">
          <mxGeometry width="50" height="50" relative="1" as="geometry">
            <mxPoint x="394" y="439" as="sourcePoint" />
            <mxPoint x="444" y="389" as="targetPoint" />
          </mxGeometry>
        </mxCell>
        <mxCell id="husGnVyWFRahmSMxi9gw-6" value="" style="endArrow=none;html=1;strokeWidth=3;exitX=0.5;exitY=0;exitDx=0;exitDy=0;" edge="1" parent="1" source="husGnVyWFRahmSMxi9gw-2">
          <mxGeometry width="50" height="50" relative="1" as="geometry">
            <mxPoint x="394" y="439" as="sourcePoint" />
            <mxPoint x="172" y="278" as="targetPoint" />
          </mxGeometry>
        </mxCell>
        <mxCell id="husGnVyWFRahmSMxi9gw-7" value="" style="endArrow=none;html=1;strokeWidth=3;exitX=0.5;exitY=0;exitDx=0;exitDy=0;" edge="1" parent="1" source="husGnVyWFRahmSMxi9gw-4">
          <mxGeometry width="50" height="50" relative="1" as="geometry">
            <mxPoint x="172" y="308" as="sourcePoint" />
            <mxPoint x="655" y="279" as="targetPoint" />
          </mxGeometry>
        </mxCell>
        <mxCell id="husGnVyWFRahmSMxi9gw-8" value="" style="endArrow=none;html=1;strokeWidth=3;" edge="1" parent="1">
          <mxGeometry width="50" height="50" relative="1" as="geometry">
            <mxPoint x="172" y="280" as="sourcePoint" />
            <mxPoint x="656" y="280" as="targetPoint" />
          </mxGeometry>
        </mxCell>
        <mxCell id="husGnVyWFRahmSMxi9gw-9" value="" style="endArrow=none;html=1;strokeWidth=3;" edge="1" parent="1">
          <mxGeometry width="50" height="50" relative="1" as="geometry">
            <mxPoint x="172" y="368" as="sourcePoint" />
            <mxPoint x="172" y="466" as="targetPoint" />
          </mxGeometry>
        </mxCell>
        <mxCell id="husGnVyWFRahmSMxi9gw-10" value="Sắp xếp lớp học" style="rounded=0;whiteSpace=wrap;html=1;" vertex="1" parent="1">
          <mxGeometry x="216" y="388" width="120" height="40" as="geometry" />
        </mxCell>
        <mxCell id="husGnVyWFRahmSMxi9gw-11" value="Sắp xếp lịch thi" style="rounded=0;whiteSpace=wrap;html=1;" vertex="1" parent="1">
          <mxGeometry x="216" y="446" width="120" height="40" as="geometry" />
        </mxCell>
        <mxCell id="husGnVyWFRahmSMxi9gw-12" value="" style="endArrow=none;html=1;strokeWidth=3;exitX=0;exitY=0.5;exitDx=0;exitDy=0;" edge="1" parent="1" source="husGnVyWFRahmSMxi9gw-11">
          <mxGeometry width="50" height="50" relative="1" as="geometry">
            <mxPoint x="350" y="378" as="sourcePoint" />
            <mxPoint x="172" y="466" as="targetPoint" />
          </mxGeometry>
        </mxCell>
        <mxCell id="husGnVyWFRahmSMxi9gw-13" value="" style="endArrow=none;html=1;strokeWidth=3;exitX=0;exitY=0.5;exitDx=0;exitDy=0;" edge="1" parent="1" source="husGnVyWFRahmSMxi9gw-10">
          <mxGeometry width="50" height="50" relative="1" as="geometry">
            <mxPoint x="350" y="378" as="sourcePoint" />
            <mxPoint x="172" y="408" as="targetPoint" />
          </mxGeometry>
        </mxCell>
        <mxCell id="husGnVyWFRahmSMxi9gw-14" value="" style="endArrow=none;html=1;strokeWidth=3;" edge="1" parent="1">
          <mxGeometry width="50" height="50" relative="1" as="geometry">
            <mxPoint x="408" y="368" as="sourcePoint" />
            <mxPoint x="408" y="466" as="targetPoint" />
          </mxGeometry>
        </mxCell>
        <mxCell id="husGnVyWFRahmSMxi9gw-15" value="Đánh giá quá trình học tập" style="rounded=0;whiteSpace=wrap;html=1;" vertex="1" parent="1">
          <mxGeometry x="452" y="388" width="120" height="40" as="geometry" />
        </mxCell>
        <mxCell id="husGnVyWFRahmSMxi9gw-16" value="Đánh giá thành tích cuối kì" style="rounded=0;whiteSpace=wrap;html=1;" vertex="1" parent="1">
          <mxGeometry x="452" y="446" width="120" height="40" as="geometry" />
        </mxCell>
        <mxCell id="husGnVyWFRahmSMxi9gw-17" value="" style="endArrow=none;html=1;strokeWidth=3;exitX=0;exitY=0.5;exitDx=0;exitDy=0;" edge="1" source="husGnVyWFRahmSMxi9gw-16" parent="1">
          <mxGeometry width="50" height="50" relative="1" as="geometry">
            <mxPoint x="586" y="378" as="sourcePoint" />
            <mxPoint x="408" y="466" as="targetPoint" />
          </mxGeometry>
        </mxCell>
        <mxCell id="husGnVyWFRahmSMxi9gw-18" value="" style="endArrow=none;html=1;strokeWidth=3;exitX=0;exitY=0.5;exitDx=0;exitDy=0;" edge="1" source="husGnVyWFRahmSMxi9gw-15" parent="1">
          <mxGeometry width="50" height="50" relative="1" as="geometry">
            <mxPoint x="586" y="378" as="sourcePoint" />
            <mxPoint x="406" y="408" as="targetPoint" />
          </mxGeometry>
        </mxCell>
        <mxCell id="husGnVyWFRahmSMxi9gw-19" value="" style="endArrow=none;html=1;strokeWidth=3;" edge="1" parent="1">
          <mxGeometry width="50" height="50" relative="1" as="geometry">
            <mxPoint x="655" y="368" as="sourcePoint" />
            <mxPoint x="655" y="466" as="targetPoint" />
          </mxGeometry>
        </mxCell>
        <mxCell id="husGnVyWFRahmSMxi9gw-20" value="Cập nhật điểm mới" style="rounded=0;whiteSpace=wrap;html=1;" vertex="1" parent="1">
          <mxGeometry x="699" y="388" width="120" height="40" as="geometry" />
        </mxCell>
        <mxCell id="husGnVyWFRahmSMxi9gw-21" value="Chỉnh sửa lại điểm khi có sai xót, thi lại" style="rounded=0;whiteSpace=wrap;html=1;" vertex="1" parent="1">
          <mxGeometry x="699" y="446" width="120" height="40" as="geometry" />
        </mxCell>
        <mxCell id="husGnVyWFRahmSMxi9gw-22" value="" style="endArrow=none;html=1;strokeWidth=3;exitX=0;exitY=0.5;exitDx=0;exitDy=0;" edge="1" source="husGnVyWFRahmSMxi9gw-21" parent="1">
          <mxGeometry width="50" height="50" relative="1" as="geometry">
            <mxPoint x="833" y="378" as="sourcePoint" />
            <mxPoint x="655" y="466" as="targetPoint" />
          </mxGeometry>
        </mxCell>
        <mxCell id="husGnVyWFRahmSMxi9gw-23" value="" style="endArrow=none;html=1;strokeWidth=3;exitX=0;exitY=0.5;exitDx=0;exitDy=0;" edge="1" source="husGnVyWFRahmSMxi9gw-20" parent="1">
          <mxGeometry width="50" height="50" relative="1" as="geometry">
            <mxPoint x="833" y="378" as="sourcePoint" />
            <mxPoint x="653" y="408" as="targetPoint" />
          </mxGeometry>
        </mxCell>
      </root>
    </mxGraphModel>
  </diagram>
</mxfile>
